<?xml version="1.0" standalone="no"?>
<!DOCTYPE svg PUBLIC "-//W3C//DTD SVG 20010904//EN"
 "http://www.w3.org/TR/2001/REC-SVG-20010904/DTD/svg10.dtd">
<svg version="1.0" xmlns="http://www.w3.org/2000/svg"
 width="512.000000pt" height="512.000000pt" viewBox="0 0 512.000000 512.000000"
 preserveAspectRatio="xMidYMid meet">
<metadata>
Created by potrace 1.11, written by Peter Selinger 2001-2013
</metadata>
<g transform="translate(0.000000,512.000000) scale(0.100000,-0.100000)"
fill="#000000" stroke="none">
<path d="M2187 5094 c-71 -13 -143 -28 -160 -33 -18 -6 -43 -12 -57 -15 -89
-15 -320 -97 -455 -162 -554 -266 -888 -674 -996 -1217 -18 -91 -23 -147 -23
-297 -1 -172 7 -316 18 -351 3 -7 7 -32 10 -54 16 -133 129 -513 212 -713 103
-250 219 -488 351 -717 282 -492 636 -955 913 -1195 95 -82 119 -100 222 -173
148 -104 263 -159 337 -162 62 -3 82 4 226 85 256 143 542 426 849 840 51 68
306 448 306 456 0 2 19 34 43 71 140 220 329 585 425 823 79 195 164 473 185
605 3 17 8 50 12 75 4 25 9 56 12 70 3 14 7 115 8 225 4 233 -9 352 -59 535
-155 561 -593 986 -1241 1201 -98 33 -297 85 -361 94 -21 4 -77 13 -123 21
-57 9 -154 14 -305 13 -185 -1 -242 -5 -349 -25z m658 -214 c385 -72 645 -167
889 -325 88 -56 106 -70 185 -140 331 -293 494 -677 486 -1145 -2 -124 -8
-185 -25 -290 -5 -30 -12 -69 -15 -86 -15 -90 -112 -410 -145 -479 -5 -11 -26
-60 -46 -109 -102 -251 -303 -618 -532 -968 -344 -527 -675 -884 -989 -1066
-39 -23 -79 -42 -88 -42 -33 0 -216 115 -339 214 -165 133 -368 353 -537 581
-24 33 -46 62 -49 65 -21 21 -224 330 -295 450 -185 311 -350 653 -459 955
-32 88 -92 280 -100 320 -3 11 -10 43 -16 70 -6 28 -14 61 -16 75 -21 115 -26
151 -31 213 -12 137 -6 346 12 427 3 14 8 41 11 60 7 46 46 170 78 245 142
342 441 625 849 803 151 67 399 143 505 157 19 2 42 6 51 9 9 3 38 7 66 11 27
3 51 7 52 8 9 10 441 -2 498 -13z"/>
<path d="M1116 2882 c-22 -26 -20 -59 13 -192 107 -432 352 -730 694 -845 41
-13 98 -28 128 -32 64 -9 285 -11 349 -2 l45 6 -3 39 c-6 71 -44 237 -74 324
-119 338 -371 564 -736 660 -105 28 -188 41 -338 54 -51 5 -64 3 -78 -12z"/>
<path d="M3929 2886 c-2 -2 -44 -6 -94 -10 -102 -8 -132 -12 -172 -20 -15 -4
-39 -8 -52 -11 -57 -11 -192 -60 -266 -97 -102 -51 -165 -96 -242 -175 -169
-172 -250 -381 -249 -644 l1 -124 50 0 c50 -1 75 2 195 25 351 65 632 242 805
504 80 123 153 330 170 483 l7 60 -67 2 c-38 1 -71 4 -75 6 -4 3 -9 3 -11 1z"/>
</g>
</svg>
